<mxfile host="65bd71144e">
    <diagram id="NMQXbOT0IyceS195EiqY" name="Page-1">
        <mxGraphModel dx="1066" dy="637" grid="1" gridSize="10" guides="1" tooltips="1" connect="1" arrows="1" fold="1" page="1" pageScale="1" pageWidth="1100" pageHeight="850" math="0" shadow="0">
            <root>
                <mxCell id="0"/>
                <mxCell id="1" parent="0"/>
                <mxCell id="2" value="" style="shape=internalStorage;whiteSpace=wrap;html=1;backgroundOutline=1;dx=160;dy=80;movable=0;resizable=0;rotatable=0;deletable=0;editable=0;connectable=0;" vertex="1" parent="1">
                    <mxGeometry x="290" y="170" width="1080" height="720" as="geometry"/>
                </mxCell>
                <mxCell id="14" value="Overall graph ( by type)" style="rounded=0;whiteSpace=wrap;html=1;fontSize=28;movable=0;resizable=0;rotatable=0;deletable=0;editable=0;connectable=0;" vertex="1" parent="1">
                    <mxGeometry x="480" y="280" width="420" height="330" as="geometry"/>
                </mxCell>
                <mxCell id="3" value="&lt;font style=&quot;font-size: 45px;&quot;&gt;LOGO&lt;/font&gt;" style="text;html=1;strokeColor=none;fillColor=none;align=center;verticalAlign=middle;whiteSpace=wrap;rounded=0;" vertex="1" parent="1">
                    <mxGeometry x="290" y="170" width="160" height="80" as="geometry"/>
                </mxCell>
                <mxCell id="5" value="Overview" style="text;html=1;strokeColor=none;fillColor=none;align=center;verticalAlign=middle;whiteSpace=wrap;rounded=0;fontSize=28;" vertex="1" parent="1">
                    <mxGeometry x="300" y="270" width="140" height="30" as="geometry"/>
                </mxCell>
                <mxCell id="7" value="Register" style="text;html=1;strokeColor=none;fillColor=none;align=center;verticalAlign=middle;whiteSpace=wrap;rounded=0;fontSize=28;" vertex="1" parent="1">
                    <mxGeometry x="300" y="390" width="140" height="30" as="geometry"/>
                </mxCell>
                <mxCell id="8" value="Search" style="text;html=1;strokeColor=none;fillColor=none;align=center;verticalAlign=middle;whiteSpace=wrap;rounded=0;fontSize=28;" vertex="1" parent="1">
                    <mxGeometry x="300" y="330" width="140" height="30" as="geometry"/>
                </mxCell>
                <mxCell id="11" value="Logout" style="text;html=1;strokeColor=none;fillColor=none;align=center;verticalAlign=middle;whiteSpace=wrap;rounded=0;fontSize=28;" vertex="1" parent="1">
                    <mxGeometry x="1260" y="195" width="80" height="30" as="geometry"/>
                </mxCell>
                <mxCell id="15" value="Table with value data" style="rounded=0;whiteSpace=wrap;html=1;fontSize=28;movable=0;resizable=0;rotatable=0;deletable=0;editable=0;connectable=0;" vertex="1" parent="1">
                    <mxGeometry x="480" y="630" width="860" height="250" as="geometry"/>
                </mxCell>
                <mxCell id="16" value="Resellable graph" style="rounded=0;whiteSpace=wrap;html=1;fontSize=28;movable=0;resizable=0;rotatable=0;deletable=0;editable=0;connectable=0;" vertex="1" parent="1">
                    <mxGeometry x="920" y="280" width="420" height="100" as="geometry"/>
                </mxCell>
                <mxCell id="17" value="Recyclable graph" style="rounded=0;whiteSpace=wrap;html=1;fontSize=28;movable=0;resizable=0;rotatable=0;deletable=0;editable=0;connectable=0;" vertex="1" parent="1">
                    <mxGeometry x="920" y="395" width="420" height="100" as="geometry"/>
                </mxCell>
                <mxCell id="18" value="Repurposable graph" style="rounded=0;whiteSpace=wrap;html=1;fontSize=28;movable=0;resizable=0;rotatable=0;deletable=0;editable=0;connectable=0;" vertex="1" parent="1">
                    <mxGeometry x="920" y="510" width="420" height="100" as="geometry"/>
                </mxCell>
            </root>
        </mxGraphModel>
    </diagram>
</mxfile>